<svg width="13" height="13" viewBox="0 0 13 13" fill="none" xmlns="http://www.w3.org/2000/svg">
<path d="M6.17532 3.10547C7.89797 3.10547 9.31985 4.52734 9.31985 6.25C9.31985 8 7.89797 9.39453 6.17532 9.39453C4.42532 9.39453 3.03079 8 3.03079 6.25C3.03079 4.52734 4.42532 3.10547 6.17532 3.10547ZM6.17532 8.30078C7.29641 8.30078 8.19875 7.39844 8.19875 6.25C8.19875 5.12891 7.29641 4.22656 6.17532 4.22656C5.02688 4.22656 4.12454 5.12891 4.12454 6.25C4.12454 7.39844 5.05422 8.30078 6.17532 8.30078ZM10.1675 2.99609C10.1675 3.40625 9.83938 3.73438 9.42922 3.73438C9.01907 3.73438 8.69094 3.40625 8.69094 2.99609C8.69094 2.58594 9.01907 2.25781 9.42922 2.25781C9.83938 2.25781 10.1675 2.58594 10.1675 2.99609ZM12.2456 3.73438C12.3003 4.74609 12.3003 7.78125 12.2456 8.79297C12.1909 9.77734 11.9722 10.625 11.2613 11.3633C10.5503 12.0742 9.67532 12.293 8.69094 12.3477C7.67922 12.4023 4.64407 12.4023 3.63235 12.3477C2.64797 12.293 1.80032 12.0742 1.06204 11.3633C0.351099 10.625 0.132349 9.77734 0.077661 8.79297C0.0229735 7.78125 0.0229735 4.74609 0.077661 3.73438C0.132349 2.75 0.351099 1.875 1.06204 1.16406C1.80032 0.453125 2.64797 0.234375 3.63235 0.179688C4.64407 0.125 7.67922 0.125 8.69094 0.179688C9.67532 0.234375 10.5503 0.453125 11.2613 1.16406C11.9722 1.875 12.1909 2.75 12.2456 3.73438ZM10.9331 9.85938C11.2613 9.06641 11.1792 7.15234 11.1792 6.25C11.1792 5.375 11.2613 3.46094 10.9331 2.64062C10.7144 2.12109 10.3042 1.68359 9.78469 1.49219C8.96438 1.16406 7.05032 1.24609 6.17532 1.24609C5.27297 1.24609 3.35891 1.16406 2.56594 1.49219C2.01907 1.71094 1.60891 2.12109 1.39016 2.64062C1.06204 3.46094 1.14407 5.375 1.14407 6.25C1.14407 7.15234 1.06204 9.06641 1.39016 9.85938C1.60891 10.4062 2.01907 10.8164 2.56594 11.0352C3.35891 11.3633 5.27297 11.2812 6.17532 11.2812C7.05032 11.2812 8.96438 11.3633 9.78469 11.0352C10.3042 10.8164 10.7417 10.4062 10.9331 9.85938Z" fill="white"/>
</svg>
