<svg width="16" height="11" viewBox="0 0 16 11" fill="none" xmlns="http://www.w3.org/2000/svg">
<path d="M15.3339 1.66797C15.662 2.81641 15.662 5.27734 15.662 5.27734C15.662 5.27734 15.662 7.71094 15.3339 8.88672C15.1698 9.54297 14.6503 10.0352 14.0214 10.1992C12.8456 10.5 8.19719 10.5 8.19719 10.5C8.19719 10.5 3.52141 10.5 2.34563 10.1992C1.71672 10.0352 1.19719 9.54297 1.03313 8.88672C0.705005 7.71094 0.705005 5.27734 0.705005 5.27734C0.705005 5.27734 0.705005 2.81641 1.03313 1.66797C1.19719 1.01172 1.71672 0.492188 2.34563 0.328125C3.52141 0 8.19719 0 8.19719 0C8.19719 0 12.8456 0 14.0214 0.328125C14.6503 0.492188 15.1698 1.01172 15.3339 1.66797ZM6.66594 7.49219L10.5488 5.27734L6.66594 3.0625V7.49219Z" fill="white"/>
</svg>
