<svg width="263" height="66" viewBox="0 0 263 66" fill="none" xmlns="http://www.w3.org/2000/svg">
<path d="M24.9 11.47V32.41H20.7V18.79L15.09 32.41H11.91L6.27 18.79V32.41H2.07V11.47H6.84L13.5 27.04L20.16 11.47H24.9ZM44.8024 23.74C44.8024 24.34 44.7624 24.88 44.6824 25.36H32.5324C32.6324 26.56 33.0524 27.5 33.7924 28.18C34.5324 28.86 35.4424 29.2 36.5224 29.2C38.0824 29.2 39.1924 28.53 39.8524 27.19H44.3824C43.9024 28.79 42.9824 30.11 41.6224 31.15C40.2624 32.17 38.5924 32.68 36.6124 32.68C35.0124 32.68 33.5724 32.33 32.2924 31.63C31.0324 30.91 30.0424 29.9 29.3224 28.6C28.6224 27.3 28.2724 25.8 28.2724 24.1C28.2724 22.38 28.6224 20.87 29.3224 19.57C30.0224 18.27 31.0024 17.27 32.2624 16.57C33.5224 15.87 34.9724 15.52 36.6124 15.52C38.1924 15.52 39.6024 15.86 40.8424 16.54C42.1024 17.22 43.0724 18.19 43.7524 19.45C44.4524 20.69 44.8024 22.12 44.8024 23.74ZM40.4524 22.54C40.4324 21.46 40.0424 20.6 39.2824 19.96C38.5224 19.3 37.5924 18.97 36.4924 18.97C35.4524 18.97 34.5724 19.29 33.8524 19.93C33.1524 20.55 32.7224 21.42 32.5624 22.54H40.4524ZM68.808 15.55C70.848 15.55 72.488 16.18 73.728 17.44C74.988 18.68 75.618 20.42 75.618 22.66V32.41H71.418V23.23C71.418 21.93 71.088 20.94 70.428 20.26C69.768 19.56 68.868 19.21 67.728 19.21C66.588 19.21 65.678 19.56 64.998 20.26C64.338 20.94 64.008 21.93 64.008 23.23V32.41H59.808V23.23C59.808 21.93 59.478 20.94 58.818 20.26C58.158 19.56 57.258 19.21 56.118 19.21C54.958 19.21 54.038 19.56 53.358 20.26C52.698 20.94 52.368 21.93 52.368 23.23V32.41H48.168V15.79H52.368V17.8C52.908 17.1 53.598 16.55 54.438 16.15C55.298 15.75 56.238 15.55 57.258 15.55C58.558 15.55 59.718 15.83 60.738 16.39C61.758 16.93 62.548 17.71 63.108 18.73C63.648 17.77 64.428 17 65.448 16.42C66.488 15.84 67.608 15.55 68.808 15.55ZM87.2836 32.68C85.6836 32.68 84.2436 32.33 82.9636 31.63C81.6836 30.91 80.6736 29.9 79.9336 28.6C79.2136 27.3 78.8536 25.8 78.8536 24.1C78.8536 22.4 79.2236 20.9 79.9636 19.6C80.7236 18.3 81.7536 17.3 83.0536 16.6C84.3536 15.88 85.8036 15.52 87.4036 15.52C89.0036 15.52 90.4536 15.88 91.7536 16.6C93.0536 17.3 94.0736 18.3 94.8136 19.6C95.5736 20.9 95.9536 22.4 95.9536 24.1C95.9536 25.8 95.5636 27.3 94.7836 28.6C94.0236 29.9 92.9836 30.91 91.6636 31.63C90.3636 32.33 88.9036 32.68 87.2836 32.68ZM87.2836 29.02C88.0436 29.02 88.7536 28.84 89.4136 28.48C90.0936 28.1 90.6336 27.54 91.0336 26.8C91.4336 26.06 91.6336 25.16 91.6336 24.1C91.6336 22.52 91.2136 21.31 90.3736 20.47C89.5536 19.61 88.5436 19.18 87.3436 19.18C86.1436 19.18 85.1336 19.61 84.3136 20.47C83.5136 21.31 83.1136 22.52 83.1136 24.1C83.1136 25.68 83.5036 26.9 84.2836 27.76C85.0836 28.6 86.0836 29.02 87.2836 29.02ZM103.534 18.37C104.074 17.49 104.774 16.8 105.634 16.3C106.514 15.8 107.514 15.55 108.634 15.55V19.96H107.524C106.204 19.96 105.204 20.27 104.524 20.89C103.864 21.51 103.534 22.59 103.534 24.13V32.41H99.3345V15.79H103.534V18.37ZM127.663 15.79L117.373 40.27H112.903L116.503 31.99L109.843 15.79H114.553L118.843 27.4L123.193 15.79H127.663ZM149.556 21.67C150.736 21.89 151.706 22.48 152.466 23.44C153.226 24.4 153.606 25.5 153.606 26.74C153.606 27.86 153.326 28.85 152.766 29.71C152.226 30.55 151.436 31.21 150.396 31.69C149.356 32.17 148.126 32.41 146.706 32.41H137.676V11.47H146.316C147.736 11.47 148.956 11.7 149.976 12.16C151.016 12.62 151.796 13.26 152.316 14.08C152.856 14.9 153.126 15.83 153.126 16.87C153.126 18.09 152.796 19.11 152.136 19.93C151.496 20.75 150.636 21.33 149.556 21.67ZM141.876 20.11H145.716C146.716 20.11 147.486 19.89 148.026 19.45C148.566 18.99 148.836 18.34 148.836 17.5C148.836 16.66 148.566 16.01 148.026 15.55C147.486 15.09 146.716 14.86 145.716 14.86H141.876V20.11ZM146.106 28.99C147.126 28.99 147.916 28.75 148.476 28.27C149.056 27.79 149.346 27.11 149.346 26.23C149.346 25.33 149.046 24.63 148.446 24.13C147.846 23.61 147.036 23.35 146.016 23.35H141.876V28.99H146.106ZM161.453 10.21V32.41H157.253V10.21H161.453ZM173.283 32.68C171.683 32.68 170.243 32.33 168.963 31.63C167.683 30.91 166.673 29.9 165.933 28.6C165.213 27.3 164.853 25.8 164.853 24.1C164.853 22.4 165.223 20.9 165.963 19.6C166.723 18.3 167.753 17.3 169.053 16.6C170.353 15.88 171.803 15.52 173.403 15.52C175.003 15.52 176.453 15.88 177.753 16.6C179.053 17.3 180.073 18.3 180.813 19.6C181.573 20.9 181.953 22.4 181.953 24.1C181.953 25.8 181.563 27.3 180.783 28.6C180.023 29.9 178.983 30.91 177.663 31.63C176.363 32.33 174.903 32.68 173.283 32.68ZM173.283 29.02C174.043 29.02 174.753 28.84 175.413 28.48C176.093 28.1 176.633 27.54 177.033 26.8C177.433 26.06 177.633 25.16 177.633 24.1C177.633 22.52 177.213 21.31 176.373 20.47C175.553 19.61 174.543 19.18 173.343 19.18C172.143 19.18 171.133 19.61 170.313 20.47C169.513 21.31 169.113 22.52 169.113 24.1C169.113 25.68 169.503 26.9 170.283 27.76C171.083 28.6 172.083 29.02 173.283 29.02ZM191.844 15.52C193.084 15.52 194.174 15.77 195.114 16.27C196.054 16.75 196.794 17.38 197.334 18.16V15.79H201.564V32.53C201.564 34.07 201.254 35.44 200.634 36.64C200.014 37.86 199.084 38.82 197.844 39.52C196.604 40.24 195.104 40.6 193.344 40.6C190.984 40.6 189.044 40.05 187.524 38.95C186.024 37.85 185.174 36.35 184.974 34.45H189.144C189.364 35.21 189.834 35.81 190.554 36.25C191.294 36.71 192.184 36.94 193.224 36.94C194.444 36.94 195.434 36.57 196.194 35.83C196.954 35.11 197.334 34.01 197.334 32.53V29.95C196.794 30.73 196.044 31.38 195.084 31.9C194.144 32.42 193.064 32.68 191.844 32.68C190.444 32.68 189.164 32.32 188.004 31.6C186.844 30.88 185.924 29.87 185.244 28.57C184.584 27.25 184.254 25.74 184.254 24.04C184.254 22.36 184.584 20.87 185.244 19.57C185.924 18.27 186.834 17.27 187.974 16.57C189.134 15.87 190.424 15.52 191.844 15.52ZM197.334 24.1C197.334 23.08 197.134 22.21 196.734 21.49C196.334 20.75 195.794 20.19 195.114 19.81C194.434 19.41 193.704 19.21 192.924 19.21C192.144 19.21 191.424 19.4 190.764 19.78C190.104 20.16 189.564 20.72 189.144 21.46C188.744 22.18 188.544 23.04 188.544 24.04C188.544 25.04 188.744 25.92 189.144 26.68C189.564 27.42 190.104 27.99 190.764 28.39C191.444 28.79 192.164 28.99 192.924 28.99C193.704 28.99 194.434 28.8 195.114 28.42C195.794 28.02 196.334 27.46 196.734 26.74C197.134 26 197.334 25.12 197.334 24.1ZM228.684 17.95C228.684 19.07 228.414 20.12 227.874 21.1C227.354 22.08 226.524 22.87 225.384 23.47C224.264 24.07 222.844 24.37 221.124 24.37H217.614V32.41H213.414V11.47H221.124C222.744 11.47 224.124 11.75 225.264 12.31C226.404 12.87 227.254 13.64 227.814 14.62C228.394 15.6 228.684 16.71 228.684 17.95ZM220.944 20.98C222.104 20.98 222.964 20.72 223.524 20.2C224.084 19.66 224.364 18.91 224.364 17.95C224.364 15.91 223.224 14.89 220.944 14.89H217.614V20.98H220.944ZM236.166 18.37C236.706 17.49 237.406 16.8 238.266 16.3C239.146 15.8 240.146 15.55 241.266 15.55V19.96H240.156C238.836 19.96 237.836 20.27 237.156 20.89C236.496 21.51 236.166 22.59 236.166 24.13V32.41H231.966V15.79H236.166V18.37ZM251.775 32.68C250.175 32.68 248.735 32.33 247.455 31.63C246.175 30.91 245.165 29.9 244.425 28.6C243.705 27.3 243.345 25.8 243.345 24.1C243.345 22.4 243.715 20.9 244.455 19.6C245.215 18.3 246.245 17.3 247.545 16.6C248.845 15.88 250.295 15.52 251.895 15.52C253.495 15.52 254.945 15.88 256.245 16.6C257.545 17.3 258.565 18.3 259.305 19.6C260.065 20.9 260.445 22.4 260.445 24.1C260.445 25.8 260.055 27.3 259.275 28.6C258.515 29.9 257.475 30.91 256.155 31.63C254.855 32.33 253.395 32.68 251.775 32.68ZM251.775 29.02C252.535 29.02 253.245 28.84 253.905 28.48C254.585 28.1 255.125 27.54 255.525 26.8C255.925 26.06 256.125 25.16 256.125 24.1C256.125 22.52 255.705 21.31 254.865 20.47C254.045 19.61 253.035 19.18 251.835 19.18C250.635 19.18 249.625 19.61 248.805 20.47C248.005 21.31 247.605 22.52 247.605 24.1C247.605 25.68 247.995 26.9 248.775 27.76C249.575 28.6 250.575 29.02 251.775 29.02Z" fill="black"/>
<path d="M0.602 55.524C0.602 54.572 0.816667 53.718 1.246 52.962C1.67533 52.1967 2.25867 51.5993 2.996 51.17C3.74267 50.7407 4.56867 50.526 5.474 50.526C6.538 50.526 7.46667 50.7827 8.26 51.296C9.05333 51.8093 9.632 52.5373 9.996 53.48H8.47C8.19933 52.892 7.80733 52.4393 7.294 52.122C6.79 51.8047 6.18333 51.646 5.474 51.646C4.79267 51.646 4.18133 51.8047 3.64 52.122C3.09867 52.4393 2.674 52.892 2.366 53.48C2.058 54.0587 1.904 54.74 1.904 55.524C1.904 56.2987 2.058 56.98 2.366 57.568C2.674 58.1467 3.09867 58.5947 3.64 58.912C4.18133 59.2293 4.79267 59.388 5.474 59.388C6.18333 59.388 6.79 59.234 7.294 58.926C7.80733 58.6087 8.19933 58.156 8.47 57.568H9.996C9.632 58.5013 9.05333 59.2247 8.26 59.738C7.46667 60.242 6.538 60.494 5.474 60.494C4.56867 60.494 3.74267 60.284 2.996 59.864C2.25867 59.4347 1.67533 58.842 1.246 58.086C0.816667 57.33 0.602 56.476 0.602 55.524ZM13.1665 53.984C13.3905 53.5453 13.7078 53.2047 14.1185 52.962C14.5385 52.7193 15.0471 52.598 15.6445 52.598V53.914H15.3085C13.8805 53.914 13.1665 54.6887 13.1665 56.238V60.41H11.8925V52.738H13.1665V53.984ZM24.1151 56.28C24.1151 56.5227 24.1011 56.7793 24.0731 57.05H17.9411C17.9878 57.806 18.2444 58.3987 18.7111 58.828C19.1871 59.248 19.7611 59.458 20.4331 59.458C20.9838 59.458 21.4411 59.332 21.8051 59.08C22.1784 58.8187 22.4398 58.4733 22.5891 58.044H23.9611C23.7558 58.7813 23.3451 59.3833 22.7291 59.85C22.1131 60.3073 21.3478 60.536 20.4331 60.536C19.7051 60.536 19.0518 60.3727 18.4731 60.046C17.9038 59.7193 17.4558 59.2573 17.1291 58.66C16.8024 58.0533 16.6391 57.3533 16.6391 56.56C16.6391 55.7667 16.7978 55.0713 17.1151 54.474C17.4324 53.8767 17.8758 53.4193 18.4451 53.102C19.0238 52.7753 19.6864 52.612 20.4331 52.612C21.1611 52.612 21.8051 52.7707 22.3651 53.088C22.9251 53.4053 23.3544 53.844 23.6531 54.404C23.9611 54.9547 24.1151 55.58 24.1151 56.28ZM22.7991 56.014C22.7991 55.5287 22.6918 55.1133 22.4771 54.768C22.2624 54.4133 21.9684 54.1473 21.5951 53.97C21.2311 53.7833 20.8251 53.69 20.3771 53.69C19.7331 53.69 19.1824 53.8953 18.7251 54.306C18.2771 54.7167 18.0204 55.286 17.9551 56.014H22.7991ZM25.3208 56.546C25.3208 55.762 25.4794 55.076 25.7968 54.488C26.1141 53.8907 26.5481 53.4287 27.0988 53.102C27.6588 52.7753 28.2794 52.612 28.9608 52.612C29.6328 52.612 30.2161 52.7567 30.7108 53.046C31.2054 53.3353 31.5741 53.6993 31.8168 54.138V52.738H33.1048V60.41H31.8168V58.982C31.5648 59.43 31.1868 59.8033 30.6828 60.102C30.1881 60.3913 29.6094 60.536 28.9468 60.536C28.2654 60.536 27.6494 60.368 27.0988 60.032C26.5481 59.696 26.1141 59.2247 25.7968 58.618C25.4794 58.0113 25.3208 57.3207 25.3208 56.546ZM31.8168 56.56C31.8168 55.9813 31.7001 55.4773 31.4668 55.048C31.2334 54.6187 30.9161 54.292 30.5148 54.068C30.1228 53.8347 29.6888 53.718 29.2128 53.718C28.7368 53.718 28.3028 53.83 27.9108 54.054C27.5188 54.278 27.2061 54.6047 26.9728 55.034C26.7394 55.4633 26.6228 55.9673 26.6228 56.546C26.6228 57.134 26.7394 57.6473 26.9728 58.086C27.2061 58.5153 27.5188 58.8467 27.9108 59.08C28.3028 59.304 28.7368 59.416 29.2128 59.416C29.6888 59.416 30.1228 59.304 30.5148 59.08C30.9161 58.8467 31.2334 58.5153 31.4668 58.086C31.7001 57.6473 31.8168 57.1387 31.8168 56.56ZM36.8117 53.788V58.31C36.8117 58.6833 36.891 58.9493 37.0497 59.108C37.2084 59.2573 37.4837 59.332 37.8757 59.332H38.8137V60.41H37.6657C36.9564 60.41 36.4244 60.2467 36.0697 59.92C35.715 59.5933 35.5377 59.0567 35.5377 58.31V53.788H34.5437V52.738H35.5377V50.806H36.8117V52.738H38.8137V53.788H36.8117ZM47.3573 56.28C47.3573 56.5227 47.3433 56.7793 47.3153 57.05H41.1833C41.23 57.806 41.4866 58.3987 41.9533 58.828C42.4293 59.248 43.0033 59.458 43.6753 59.458C44.226 59.458 44.6833 59.332 45.0473 59.08C45.4206 58.8187 45.682 58.4733 45.8313 58.044H47.2033C46.998 58.7813 46.5873 59.3833 45.9713 59.85C45.3553 60.3073 44.59 60.536 43.6753 60.536C42.9473 60.536 42.294 60.3727 41.7153 60.046C41.146 59.7193 40.698 59.2573 40.3713 58.66C40.0446 58.0533 39.8813 57.3533 39.8813 56.56C39.8813 55.7667 40.04 55.0713 40.3573 54.474C40.6746 53.8767 41.118 53.4193 41.6873 53.102C42.266 52.7753 42.9286 52.612 43.6753 52.612C44.4033 52.612 45.0473 52.7707 45.6073 53.088C46.1673 53.4053 46.5966 53.844 46.8953 54.404C47.2033 54.9547 47.3573 55.58 47.3573 56.28ZM46.0413 56.014C46.0413 55.5287 45.934 55.1133 45.7193 54.768C45.5046 54.4133 45.2106 54.1473 44.8373 53.97C44.4733 53.7833 44.0673 53.69 43.6193 53.69C42.9753 53.69 42.4246 53.8953 41.9673 54.306C41.5193 54.7167 41.2626 55.286 41.1973 56.014H46.0413ZM58.5394 58.24H54.2834L53.4994 60.41H52.1554L55.6834 50.708H57.1534L60.6674 60.41H59.3234L58.5394 58.24ZM58.1754 57.204L56.4114 52.276L54.6474 57.204H58.1754ZM72.4614 53.508C72.4614 54.32 72.1814 54.9967 71.6214 55.538C71.0707 56.07 70.226 56.336 69.0874 56.336H67.2114V60.41H65.9374V50.652H69.0874C70.1887 50.652 71.024 50.918 71.5934 51.45C72.172 51.982 72.4614 52.668 72.4614 53.508ZM69.0874 55.286C69.7967 55.286 70.3194 55.132 70.6554 54.824C70.9914 54.516 71.1594 54.0773 71.1594 53.508C71.1594 52.304 70.4687 51.702 69.0874 51.702H67.2114V55.286H69.0874ZM81.0448 56.28C81.0448 56.5227 81.0308 56.7793 81.0028 57.05H74.8708C74.9175 57.806 75.1741 58.3987 75.6408 58.828C76.1168 59.248 76.6908 59.458 77.3628 59.458C77.9135 59.458 78.3708 59.332 78.7348 59.08C79.1081 58.8187 79.3695 58.4733 79.5188 58.044H80.8908C80.6855 58.7813 80.2748 59.3833 79.6588 59.85C79.0428 60.3073 78.2775 60.536 77.3628 60.536C76.6348 60.536 75.9815 60.3727 75.4028 60.046C74.8335 59.7193 74.3855 59.2573 74.0588 58.66C73.7321 58.0533 73.5688 57.3533 73.5688 56.56C73.5688 55.7667 73.7275 55.0713 74.0448 54.474C74.3621 53.8767 74.8055 53.4193 75.3748 53.102C75.9535 52.7753 76.6161 52.612 77.3628 52.612C78.0908 52.612 78.7348 52.7707 79.2948 53.088C79.8548 53.4053 80.2841 53.844 80.5828 54.404C80.8908 54.9547 81.0448 55.58 81.0448 56.28ZM79.7288 56.014C79.7288 55.5287 79.6215 55.1133 79.4068 54.768C79.1921 54.4133 78.8981 54.1473 78.5248 53.97C78.1608 53.7833 77.7548 53.69 77.3068 53.69C76.6628 53.69 76.1121 53.8953 75.6548 54.306C75.2068 54.7167 74.9501 55.286 74.8848 56.014H79.7288ZM84.0004 53.984C84.2244 53.5453 84.5418 53.2047 84.9524 52.962C85.3724 52.7193 85.8811 52.598 86.4784 52.598V53.914H86.1424C84.7144 53.914 84.0004 54.6887 84.0004 56.238V60.41H82.7264V52.738H84.0004V53.984ZM91.0711 53.788H89.4611V60.41H88.1871V53.788H87.1931V52.738H88.1871V52.192C88.1871 51.3333 88.4064 50.708 88.8451 50.316C89.2931 49.9147 90.0071 49.714 90.9871 49.714V50.778C90.4271 50.778 90.0304 50.89 89.7971 51.114C89.5731 51.3287 89.4611 51.688 89.4611 52.192V52.738H91.0711V53.788ZM99.5565 56.28C99.5565 56.5227 99.5425 56.7793 99.5145 57.05H93.3825C93.4292 57.806 93.6858 58.3987 94.1525 58.828C94.6285 59.248 95.2025 59.458 95.8745 59.458C96.4252 59.458 96.8825 59.332 97.2465 59.08C97.6198 58.8187 97.8812 58.4733 98.0305 58.044H99.4025C99.1972 58.7813 98.7865 59.3833 98.1705 59.85C97.5545 60.3073 96.7892 60.536 95.8745 60.536C95.1465 60.536 94.4932 60.3727 93.9145 60.046C93.3452 59.7193 92.8972 59.2573 92.5705 58.66C92.2438 58.0533 92.0805 57.3533 92.0805 56.56C92.0805 55.7667 92.2392 55.0713 92.5565 54.474C92.8738 53.8767 93.3172 53.4193 93.8865 53.102C94.4652 52.7753 95.1278 52.612 95.8745 52.612C96.6025 52.612 97.2465 52.7707 97.8065 53.088C98.3665 53.4053 98.7958 53.844 99.0945 54.404C99.4025 54.9547 99.5565 55.58 99.5565 56.28ZM98.2405 56.014C98.2405 55.5287 98.1332 55.1133 97.9185 54.768C97.7038 54.4133 97.4098 54.1473 97.0365 53.97C96.6725 53.7833 96.2665 53.69 95.8185 53.69C95.1745 53.69 94.6238 53.8953 94.1665 54.306C93.7185 54.7167 93.4618 55.286 93.3965 56.014H98.2405ZM100.762 56.56C100.762 55.7667 100.921 55.076 101.238 54.488C101.555 53.8907 101.994 53.4287 102.554 53.102C103.123 52.7753 103.772 52.612 104.5 52.612C105.443 52.612 106.217 52.8407 106.824 53.298C107.44 53.7553 107.846 54.39 108.042 55.202H106.67C106.539 54.7353 106.283 54.3667 105.9 54.096C105.527 53.8253 105.06 53.69 104.5 53.69C103.772 53.69 103.184 53.942 102.736 54.446C102.288 54.9407 102.064 55.6453 102.064 56.56C102.064 57.484 102.288 58.198 102.736 58.702C103.184 59.206 103.772 59.458 104.5 59.458C105.06 59.458 105.527 59.3273 105.9 59.066C106.273 58.8047 106.53 58.4313 106.67 57.946H108.042C107.837 58.73 107.426 59.36 106.81 59.836C106.194 60.3027 105.424 60.536 104.5 60.536C103.772 60.536 103.123 60.3727 102.554 60.046C101.994 59.7193 101.555 59.2573 101.238 58.66C100.921 58.0627 100.762 57.3627 100.762 56.56ZM111.296 53.788V58.31C111.296 58.6833 111.375 58.9493 111.534 59.108C111.693 59.2573 111.968 59.332 112.36 59.332H113.298V60.41H112.15C111.441 60.41 110.909 60.2467 110.554 59.92C110.199 59.5933 110.022 59.0567 110.022 58.31V53.788H109.028V52.738H110.022V50.806H111.296V52.738H113.298V53.788H111.296ZM123.46 55.384C123.815 55.44 124.137 55.5847 124.426 55.818C124.725 56.0513 124.958 56.3407 125.126 56.686C125.303 57.0313 125.392 57.4 125.392 57.792C125.392 58.2867 125.266 58.7347 125.014 59.136C124.762 59.528 124.393 59.8407 123.908 60.074C123.432 60.298 122.867 60.41 122.214 60.41H118.574V50.652H122.074C122.737 50.652 123.301 50.764 123.768 50.988C124.235 51.2027 124.585 51.4967 124.818 51.87C125.051 52.2433 125.168 52.6633 125.168 53.13C125.168 53.7087 125.009 54.1893 124.692 54.572C124.384 54.9453 123.973 55.216 123.46 55.384ZM119.848 54.866H121.99C122.587 54.866 123.049 54.726 123.376 54.446C123.703 54.166 123.866 53.7787 123.866 53.284C123.866 52.7893 123.703 52.402 123.376 52.122C123.049 51.842 122.578 51.702 121.962 51.702H119.848V54.866ZM122.102 59.36C122.737 59.36 123.231 59.2107 123.586 58.912C123.941 58.6133 124.118 58.198 124.118 57.666C124.118 57.1247 123.931 56.7 123.558 56.392C123.185 56.0747 122.685 55.916 122.06 55.916H119.848V59.36H122.102ZM128.434 50.05V60.41H127.16V50.05H128.434ZM133.951 60.536C133.233 60.536 132.579 60.3727 131.991 60.046C131.413 59.7193 130.955 59.2573 130.619 58.66C130.293 58.0533 130.129 57.3533 130.129 56.56C130.129 55.776 130.297 55.0853 130.633 54.488C130.979 53.8813 131.445 53.4193 132.033 53.102C132.621 52.7753 133.279 52.612 134.007 52.612C134.735 52.612 135.393 52.7753 135.981 53.102C136.569 53.4193 137.031 53.8767 137.367 54.474C137.713 55.0713 137.885 55.7667 137.885 56.56C137.885 57.3533 137.708 58.0533 137.353 58.66C137.008 59.2573 136.537 59.7193 135.939 60.046C135.342 60.3727 134.679 60.536 133.951 60.536ZM133.951 59.416C134.409 59.416 134.838 59.3087 135.239 59.094C135.641 58.8793 135.963 58.5573 136.205 58.128C136.457 57.6987 136.583 57.176 136.583 56.56C136.583 55.944 136.462 55.4213 136.219 54.992C135.977 54.5627 135.659 54.2453 135.267 54.04C134.875 53.8253 134.451 53.718 133.993 53.718C133.527 53.718 133.097 53.8253 132.705 54.04C132.323 54.2453 132.015 54.5627 131.781 54.992C131.548 55.4213 131.431 55.944 131.431 56.56C131.431 57.1853 131.543 57.7127 131.767 58.142C132.001 58.5713 132.309 58.8933 132.691 59.108C133.074 59.3133 133.494 59.416 133.951 59.416ZM142.724 52.612C143.387 52.612 143.966 52.7567 144.46 53.046C144.964 53.3353 145.338 53.6993 145.58 54.138V52.738H146.868V60.578C146.868 61.278 146.719 61.8987 146.42 62.44C146.122 62.9907 145.692 63.42 145.132 63.728C144.582 64.036 143.938 64.19 143.2 64.19C142.192 64.19 141.352 63.952 140.68 63.476C140.008 63 139.612 62.3513 139.49 61.53H140.75C140.89 61.9967 141.18 62.37 141.618 62.65C142.057 62.9393 142.584 63.084 143.2 63.084C143.9 63.084 144.47 62.8647 144.908 62.426C145.356 61.9873 145.58 61.3713 145.58 60.578V58.968C145.328 59.416 144.955 59.7893 144.46 60.088C143.966 60.3867 143.387 60.536 142.724 60.536C142.043 60.536 141.422 60.368 140.862 60.032C140.312 59.696 139.878 59.2247 139.56 58.618C139.243 58.0113 139.084 57.3207 139.084 56.546C139.084 55.762 139.243 55.076 139.56 54.488C139.878 53.8907 140.312 53.4287 140.862 53.102C141.422 52.7753 142.043 52.612 142.724 52.612ZM145.58 56.56C145.58 55.9813 145.464 55.4773 145.23 55.048C144.997 54.6187 144.68 54.292 144.278 54.068C143.886 53.8347 143.452 53.718 142.976 53.718C142.5 53.718 142.066 53.83 141.674 54.054C141.282 54.278 140.97 54.6047 140.736 55.034C140.503 55.4633 140.386 55.9673 140.386 56.546C140.386 57.134 140.503 57.6473 140.736 58.086C140.97 58.5153 141.282 58.8467 141.674 59.08C142.066 59.304 142.5 59.416 142.976 59.416C143.452 59.416 143.886 59.304 144.278 59.08C144.68 58.8467 144.997 58.5153 145.23 58.086C145.464 57.6473 145.58 57.1387 145.58 56.56ZM165.018 50.652L162.19 60.41H160.762L158.494 52.556L156.142 60.41L154.728 60.424L151.998 50.652H153.356L155.484 58.926L157.836 50.652H159.264L161.504 58.898L163.646 50.652H165.018ZM173.412 56.28C173.412 56.5227 173.398 56.7793 173.37 57.05H167.238C167.285 57.806 167.541 58.3987 168.008 58.828C168.484 59.248 169.058 59.458 169.73 59.458C170.281 59.458 170.738 59.332 171.102 59.08C171.475 58.8187 171.737 58.4733 171.886 58.044H173.258C173.053 58.7813 172.642 59.3833 172.026 59.85C171.41 60.3073 170.645 60.536 169.73 60.536C169.002 60.536 168.349 60.3727 167.77 60.046C167.201 59.7193 166.753 59.2573 166.426 58.66C166.099 58.0533 165.936 57.3533 165.936 56.56C165.936 55.7667 166.095 55.0713 166.412 54.474C166.729 53.8767 167.173 53.4193 167.742 53.102C168.321 52.7753 168.983 52.612 169.73 52.612C170.458 52.612 171.102 52.7707 171.662 53.088C172.222 53.4053 172.651 53.844 172.95 54.404C173.258 54.9547 173.412 55.58 173.412 56.28ZM172.096 56.014C172.096 55.5287 171.989 55.1133 171.774 54.768C171.559 54.4133 171.265 54.1473 170.892 53.97C170.528 53.7833 170.122 53.69 169.674 53.69C169.03 53.69 168.479 53.8953 168.022 54.306C167.574 54.7167 167.317 55.286 167.252 56.014H172.096ZM176.368 54.166C176.629 53.7087 177.012 53.3353 177.516 53.046C178.02 52.7567 178.594 52.612 179.238 52.612C179.928 52.612 180.549 52.7753 181.1 53.102C181.65 53.4287 182.084 53.8907 182.402 54.488C182.719 55.076 182.878 55.762 182.878 56.546C182.878 57.3207 182.719 58.0113 182.402 58.618C182.084 59.2247 181.646 59.696 181.086 60.032C180.535 60.368 179.919 60.536 179.238 60.536C178.575 60.536 177.992 60.3913 177.488 60.102C176.993 59.8127 176.62 59.444 176.368 58.996V60.41H175.094V50.05H176.368V54.166ZM181.576 56.546C181.576 55.9673 181.459 55.4633 181.226 55.034C180.992 54.6047 180.675 54.278 180.274 54.054C179.882 53.83 179.448 53.718 178.972 53.718C178.505 53.718 178.071 53.8347 177.67 54.068C177.278 54.292 176.96 54.6233 176.718 55.062C176.484 55.4913 176.368 55.9907 176.368 56.56C176.368 57.1387 176.484 57.6473 176.718 58.086C176.96 58.5153 177.278 58.8467 177.67 59.08C178.071 59.304 178.505 59.416 178.972 59.416C179.448 59.416 179.882 59.304 180.274 59.08C180.675 58.8467 180.992 58.5153 181.226 58.086C181.459 57.6473 181.576 57.134 181.576 56.546ZM187.271 60.536C186.683 60.536 186.155 60.438 185.689 60.242C185.222 60.0367 184.853 59.7567 184.583 59.402C184.312 59.038 184.163 58.6227 184.135 58.156H185.451C185.488 58.5387 185.665 58.8513 185.983 59.094C186.309 59.3367 186.734 59.458 187.257 59.458C187.742 59.458 188.125 59.3507 188.405 59.136C188.685 58.9213 188.825 58.6507 188.825 58.324C188.825 57.988 188.675 57.7407 188.377 57.582C188.078 57.414 187.616 57.2507 186.991 57.092C186.421 56.9427 185.955 56.7933 185.591 56.644C185.236 56.4853 184.928 56.2567 184.667 55.958C184.415 55.65 184.289 55.2487 184.289 54.754C184.289 54.362 184.405 54.0027 184.639 53.676C184.872 53.3493 185.203 53.0927 185.633 52.906C186.062 52.71 186.552 52.612 187.103 52.612C187.952 52.612 188.638 52.8267 189.161 53.256C189.683 53.6853 189.963 54.2733 190.001 55.02H188.727C188.699 54.6187 188.535 54.2967 188.237 54.054C187.947 53.8113 187.555 53.69 187.061 53.69C186.603 53.69 186.239 53.788 185.969 53.984C185.698 54.18 185.563 54.4367 185.563 54.754C185.563 55.006 185.642 55.216 185.801 55.384C185.969 55.5427 186.174 55.6733 186.417 55.776C186.669 55.8693 187.014 55.9767 187.453 56.098C188.003 56.2473 188.451 56.3967 188.797 56.546C189.142 56.686 189.436 56.9007 189.679 57.19C189.931 57.4793 190.061 57.8573 190.071 58.324C190.071 58.744 189.954 59.122 189.721 59.458C189.487 59.794 189.156 60.06 188.727 60.256C188.307 60.4427 187.821 60.536 187.271 60.536ZM192.527 51.492C192.284 51.492 192.079 51.408 191.911 51.24C191.743 51.072 191.659 50.8667 191.659 50.624C191.659 50.3813 191.743 50.176 191.911 50.008C192.079 49.84 192.284 49.756 192.527 49.756C192.76 49.756 192.956 49.84 193.115 50.008C193.283 50.176 193.367 50.3813 193.367 50.624C193.367 50.8667 193.283 51.072 193.115 51.24C192.956 51.408 192.76 51.492 192.527 51.492ZM193.143 52.738V60.41H191.869V52.738H193.143ZM196.868 53.788V58.31C196.868 58.6833 196.948 58.9493 197.106 59.108C197.265 59.2573 197.54 59.332 197.932 59.332H198.87V60.41H197.722C197.013 60.41 196.481 60.2467 196.126 59.92C195.772 59.5933 195.594 59.0567 195.594 58.31V53.788H194.6V52.738H195.594V50.806H196.868V52.738H198.87V53.788H196.868ZM207.414 56.28C207.414 56.5227 207.4 56.7793 207.372 57.05H201.24C201.287 57.806 201.543 58.3987 202.01 58.828C202.486 59.248 203.06 59.458 203.732 59.458C204.283 59.458 204.74 59.332 205.104 59.08C205.477 58.8187 205.739 58.4733 205.888 58.044H207.26C207.055 58.7813 206.644 59.3833 206.028 59.85C205.412 60.3073 204.647 60.536 203.732 60.536C203.004 60.536 202.351 60.3727 201.772 60.046C201.203 59.7193 200.755 59.2573 200.428 58.66C200.101 58.0533 199.938 57.3533 199.938 56.56C199.938 55.7667 200.097 55.0713 200.414 54.474C200.731 53.8767 201.175 53.4193 201.744 53.102C202.323 52.7753 202.985 52.612 203.732 52.612C204.46 52.612 205.104 52.7707 205.664 53.088C206.224 53.4053 206.653 53.844 206.952 54.404C207.26 54.9547 207.414 55.58 207.414 56.28ZM206.098 56.014C206.098 55.5287 205.991 55.1133 205.776 54.768C205.561 54.4133 205.267 54.1473 204.894 53.97C204.53 53.7833 204.124 53.69 203.676 53.69C203.032 53.69 202.481 53.8953 202.024 54.306C201.576 54.7167 201.319 55.286 201.254 56.014H206.098ZM214.102 51.688V54.95H217.658V56H214.102V59.36H218.078V60.41H212.828V50.638H218.078V51.688H214.102ZM219.53 56.546C219.53 55.762 219.688 55.076 220.006 54.488C220.323 53.8907 220.757 53.4287 221.308 53.102C221.868 52.7753 222.488 52.612 223.17 52.612C223.842 52.612 224.425 52.7567 224.92 53.046C225.414 53.3353 225.783 53.6993 226.026 54.138V52.738H227.314V60.41H226.026V58.982C225.774 59.43 225.396 59.8033 224.892 60.102C224.397 60.3913 223.818 60.536 223.156 60.536C222.474 60.536 221.858 60.368 221.308 60.032C220.757 59.696 220.323 59.2247 220.006 58.618C219.688 58.0113 219.53 57.3207 219.53 56.546ZM226.026 56.56C226.026 55.9813 225.909 55.4773 225.676 55.048C225.442 54.6187 225.125 54.292 224.724 54.068C224.332 53.8347 223.898 53.718 223.422 53.718C222.946 53.718 222.512 53.83 222.12 54.054C221.728 54.278 221.415 54.6047 221.182 55.034C220.948 55.4633 220.832 55.9673 220.832 56.546C220.832 57.134 220.948 57.6473 221.182 58.086C221.415 58.5153 221.728 58.8467 222.12 59.08C222.512 59.304 222.946 59.416 223.422 59.416C223.898 59.416 224.332 59.304 224.724 59.08C225.125 58.8467 225.442 58.5153 225.676 58.086C225.909 57.6473 226.026 57.1387 226.026 56.56ZM232.183 60.536C231.595 60.536 231.067 60.438 230.601 60.242C230.134 60.0367 229.765 59.7567 229.495 59.402C229.224 59.038 229.075 58.6227 229.047 58.156H230.363C230.4 58.5387 230.577 58.8513 230.895 59.094C231.221 59.3367 231.646 59.458 232.169 59.458C232.654 59.458 233.037 59.3507 233.317 59.136C233.597 58.9213 233.737 58.6507 233.737 58.324C233.737 57.988 233.587 57.7407 233.289 57.582C232.99 57.414 232.528 57.2507 231.903 57.092C231.333 56.9427 230.867 56.7933 230.503 56.644C230.148 56.4853 229.84 56.2567 229.579 55.958C229.327 55.65 229.201 55.2487 229.201 54.754C229.201 54.362 229.317 54.0027 229.551 53.676C229.784 53.3493 230.115 53.0927 230.545 52.906C230.974 52.71 231.464 52.612 232.015 52.612C232.864 52.612 233.55 52.8267 234.073 53.256C234.595 53.6853 234.875 54.2733 234.913 55.02H233.639C233.611 54.6187 233.447 54.2967 233.149 54.054C232.859 53.8113 232.467 53.69 231.973 53.69C231.515 53.69 231.151 53.788 230.881 53.984C230.61 54.18 230.475 54.4367 230.475 54.754C230.475 55.006 230.554 55.216 230.713 55.384C230.881 55.5427 231.086 55.6733 231.329 55.776C231.581 55.8693 231.926 55.9767 232.365 56.098C232.915 56.2473 233.363 56.3967 233.709 56.546C234.054 56.686 234.348 56.9007 234.591 57.19C234.843 57.4793 234.973 57.8573 234.983 58.324C234.983 58.744 234.866 59.122 234.633 59.458C234.399 59.794 234.068 60.06 233.639 60.256C233.219 60.4427 232.733 60.536 232.183 60.536ZM237.439 51.492C237.196 51.492 236.991 51.408 236.823 51.24C236.655 51.072 236.571 50.8667 236.571 50.624C236.571 50.3813 236.655 50.176 236.823 50.008C236.991 49.84 237.196 49.756 237.439 49.756C237.672 49.756 237.868 49.84 238.027 50.008C238.195 50.176 238.279 50.3813 238.279 50.624C238.279 50.8667 238.195 51.072 238.027 51.24C237.868 51.408 237.672 51.492 237.439 51.492ZM238.055 52.738V60.41H236.781V52.738H238.055ZM241.5 50.05V60.41H240.226V50.05H241.5ZM250.28 52.738L245.66 64.022H244.344L245.856 60.326L242.762 52.738H244.176L246.584 58.954L248.964 52.738H250.28Z" fill="black"/>
</svg>
