<svg width="14" height="11" viewBox="0 0 14 11" fill="none" xmlns="http://www.w3.org/2000/svg">
<path d="M12.1112 0.75C12.7714 0.75 13.33 1.30859 13.33 1.96875V9.28125C13.33 9.9668 12.7714 10.5 12.1112 10.5H1.54874C0.86319 10.5 0.329987 9.9668 0.329987 9.28125V1.96875C0.329987 1.30859 0.86319 0.75 1.54874 0.75H12.1112ZM12.1112 1.96875H1.54874V3.00977C2.10733 3.49219 3.02139 4.20312 4.95108 5.72656C5.38272 6.05664 6.22061 6.86914 6.82999 6.84375C7.41397 6.86914 8.25186 6.05664 8.6835 5.72656C10.6132 4.20312 11.5273 3.49219 12.1112 3.00977V1.96875ZM1.54874 9.28125H12.1112V4.58398C11.5273 5.04102 10.6894 5.70117 9.44522 6.69141C8.86124 7.12305 7.89639 8.08789 6.82999 8.0625C5.73819 8.08789 4.74796 7.12305 4.18936 6.69141C2.94522 5.70117 2.10733 5.04102 1.54874 4.58398V9.28125Z" fill="white"/>
</svg>
