<svg width="10" height="14" viewBox="0 0 10 14" fill="none" xmlns="http://www.w3.org/2000/svg">
<path d="M4.36719 12.8711C0.660156 7.53906 0 6.98047 0 5C0 2.30859 2.1582 0.125 4.875 0.125C7.56641 0.125 9.75 2.30859 9.75 5C9.75 6.98047 9.06445 7.53906 5.35742 12.8711C5.12891 13.2266 4.5957 13.2266 4.36719 12.8711ZM4.875 7.03125C5.99219 7.03125 6.90625 6.14258 6.90625 5C6.90625 3.88281 5.99219 2.96875 4.875 2.96875C3.73242 2.96875 2.84375 3.88281 2.84375 5C2.84375 6.14258 3.73242 7.03125 4.875 7.03125Z" fill="white"/>
</svg>
