<svg width="14" height="14" viewBox="0 0 14 14" fill="none" xmlns="http://www.w3.org/2000/svg">
<path d="M13.3991 9.31641C13.6023 9.41797 13.7546 9.64648 13.7546 9.90039C13.7546 9.92578 13.7546 9.97656 13.7546 10.0273L13.1452 12.668C13.0691 12.9473 12.8405 13.125 12.5612 13.125C6.03586 13.125 0.779999 7.86914 0.779999 1.34375C0.779999 1.06445 0.957733 0.835938 1.23703 0.759766L3.87766 0.150391C3.92844 0.150391 3.97922 0.125 4.00461 0.125C4.25851 0.125 4.48703 0.277344 4.58859 0.505859L5.80734 3.34961C5.83273 3.42578 5.85812 3.50195 5.85812 3.57812C5.85812 3.78125 5.75656 3.95898 5.62961 4.06055L4.08078 5.33008C5.02023 7.31055 6.59445 8.88477 8.57492 9.82422L9.84445 8.27539C9.94601 8.14844 10.1237 8.04688 10.3015 8.04688C10.403 8.04688 10.4792 8.07227 10.5554 8.09766L13.3991 9.31641Z" fill="white"/>
</svg>
